Coordinates
version=1
nRows=32
nColumns=22
inDegrees=yes

Units are S.I. units (second, meters, Newtons, ...)
If the header above contains a line with 'inDegrees', this indicates whether rotational values are in degrees (yes) or radians (no).

endheader
time	pelvis_tilt	pelvis_list	pelvis_rotation	pelvis_tx	pelvis_ty	pelvis_tz	hip_flexion_r	hip_adduction_r	hip_rotation_r	knee_angle_r	ankle_angle_r	subtalar_angle_r	hip_flexion_l	hip_adduction_l	hip_rotation_l	knee_angle_l	ankle_angle_l	subtalar_angle_l	lumbar_extension	lumbar_bending	lumbar_rotation
      1.30000000	    -14.57351347	      4.65341560	    -34.27970069	     -1.48232023	      0.86894574	     -0.52023938	     13.16020279	     -0.58839851	      4.39907059	     -9.18243984	     16.20908851	      3.37849956	     13.05769995	     -6.38691769	     -1.31020407	    -17.39949883	     22.52545756	     -0.63869221	      3.92002759	      2.06656934	     15.54406965
      1.31000000	    -14.64482613	      4.67746709	    -34.27990947	     -1.48022552	      0.86851287	     -0.52037718	     13.13915195	     -0.66651765	      4.40059248	     -9.23130214	     16.39462420	      3.56273372	     13.04022974	     -6.30168855	     -1.24908370	    -17.46854071	     22.73420260	     -0.86036518	      3.96132413	      2.09495428	     15.64225167
      1.32000000	    -14.72470086	      4.70141797	    -34.26649770	     -1.47797550	      0.86804888	     -0.52050033	     13.09818649	     -0.74993170	      4.39596771	     -9.24766680	     16.57368591	      3.80286018	     13.00922947	     -6.21275925	     -1.16112328	    -17.51079451	     22.94982837	     -1.13808250	      4.01378900	      2.12780144	     15.72957624
      1.33000000	    -14.79129419	      4.70428735	    -34.24255263	     -1.47559867	      0.86758535	     -0.52061238	     13.02484858	     -0.82808271	      4.37317869	     -9.26781489	     16.76637511	      3.99933968	     12.95209755	     -6.13036286	     -1.07851867	    -17.56164977	     23.19274196	     -1.36568907	      4.03451997	      2.16813821	     15.81450573
      1.34000000	    -14.85324363	      4.69091599	    -34.21713928	     -1.47309188	      0.86710507	     -0.52068830	     12.93116590	     -0.89755356	      4.33328915	     -9.29365894	     16.97505143	      4.13152908	     12.86871045	     -6.05795306	     -1.00508389	    -17.60907546	     23.46005491	     -1.52349651	      4.03866422	      2.21882423	     15.89801609
      1.35000000	    -14.90968216	      4.67563979	    -34.18099396	     -1.47040562	      0.86660669	     -0.52072713	     12.80917921	     -0.97771310	      4.27879528	     -9.30134403	     17.18797992	      4.35317965	     12.73911663	     -5.97443578	     -0.90991667	    -17.60018189	     23.73146863	     -1.78556658	      4.04184169	      2.26522529	     15.97406547
      1.36000000	    -14.96796240	      4.66430851	    -34.14917579	     -1.46757547	      0.86607598	     -0.52069981	     12.67813745	     -1.06220886	      4.23950464	     -9.30402615	     17.39612492	      4.58428877	     12.57542579	     -5.88653182	     -0.81535441	    -17.54370994	     24.00757299	     -2.05547392	      4.05293793	      2.30702784	     16.04507566
      1.37000000	    -15.02743971	      4.65902801	    -34.12306513	     -1.46460732	      0.86551546	     -0.52060436	     12.54254657	     -1.15111811	      4.21928821	     -9.30866728	     17.59347637	      4.83018719	     12.38479666	     -5.79051301	     -0.71014248	    -17.45349438	     24.28334605	     -2.34275730	      4.07356383	      2.34028435	     16.11490051
      1.38000000	    -15.08207866	      4.65190441	    -34.10235793	     -1.46151090	      0.86491646	     -0.52044617	     12.40602576	     -1.24171494	      4.18805974	     -9.34081165	     17.82076297	      5.03662032	     12.17678975	     -5.69393247	     -0.61976264	    -17.36515100	     24.58087696	     -2.59345529	      4.08947317	      2.37001787	     16.19287213
      1.39000000	    -15.14246147	      4.64590247	    -34.08730127	     -1.45830190	      0.86426707	     -0.52019981	     12.28330702	     -1.32607351	      4.14638606	     -9.40842236	     18.07914774	      5.17282902	     11.96558848	     -5.60461044	     -0.55750174	    -17.28388945	     24.89619495	     -2.76816283	      4.11459402	      2.39571488	     16.27128478
      1.40000000	    -15.19455323	      4.65622861	    -34.07349930	     -1.45493743	      0.86359877	     -0.51989556	     12.14686979	     -1.43415018	      4.15214619	     -9.46573994	     18.29482787	      5.43440150	     11.71299162	     -5.48643041	     -0.44823780	    -17.14200714	     25.18756413	     -3.09410392	      4.14729554	      2.39992544	     16.34281686
      1.41000000	    -15.25803927	      4.67306990	    -34.05847625	     -1.45146118	      0.86286140	     -0.51952157	     12.04437865	     -1.53882043	      4.13983304	     -9.58166699	     18.55304435	      5.61833604	     11.47664065	     -5.37244065	     -0.36580137	    -17.02445592	     25.49803768	     -3.32145444	      4.19757110	      2.40161955	     16.40238627
      1.42000000	    -15.34623778	      4.68625463	    -34.03726724	     -1.44789945	      0.86204792	     -0.51908476	     11.97304694	     -1.62203731	      4.16174044	     -9.73716134	     18.80105350	      5.67598741	     11.26821915	     -5.27975926	     -0.27809206	    -16.93891024	     25.84329955	     -3.38780263	      4.26791684	      2.41964476	     16.44377289
      1.43000000	    -15.38289630	      4.72110503	    -34.00642018	     -1.44413727	      0.86123213	     -0.51857828	     11.90700732	     -1.75990787	      4.13246878	     -9.99522660	     19.12910160	      5.85369812	     10.98867003	     -5.13134794	     -0.21955496	    -16.80131147	     26.12270706	     -3.59704990	      4.31089137	      2.38117113	     16.43610189
      1.44000000	    -15.43988672	      4.77280295	    -33.96710135	     -1.44024163	      0.86033860	     -0.51804009	     11.87645207	     -1.90489563	      4.13661537	    -10.28097071	     19.41381421	      6.11959699	     10.71441053	     -4.96950144	     -0.08661945	    -16.64014376	     26.40537715	     -3.87892154	      4.38701593	      2.34113006	     16.44227327
      1.45000000	    -15.49492032	      4.79442943	    -33.90937714	     -1.43625758	      0.85939948	     -0.51743985	     11.88098055	     -2.01851003	      4.13195645	    -10.69347282	     19.75427453	      6.20088809	     10.44377785	     -4.84167668	     -0.00459966	    -16.53334348	     26.71634445	     -3.95781334	      4.43622730	      2.32268752	     16.38941083
      1.46000000	    -15.53421137	      4.83744202	    -33.84146146	     -1.43213104	      0.85841392	     -0.51680453	     11.93793158	     -2.16392642	      4.11483637	    -11.22421788	     20.12069531	      6.31579778	     10.14666956	     -4.67920726	      0.10008925	    -16.39597731	     26.98997115	     -4.06211246	      4.48414123	      2.27472376	     16.31458479
      1.47000000	    -15.57561367	      4.90123612	    -33.76295711	     -1.42791678	      0.85737360	     -0.51614361	     12.07869542	     -2.32727136	      4.10521013	    -11.89678994	     20.46795241	      6.56401156	      9.85218458	     -4.49333187	      0.24911205	    -16.24857761	     27.23177925	     -4.27258912	      4.54104198	      2.20481973	     16.22159071
      1.48000000	    -15.60135197	      4.90417055	    -33.68077983	     -1.42357415	      0.85634107	     -0.51539448	     12.22725913	     -2.44109434	      4.06942506	    -12.70065510	     20.85605130	      6.63497084	      9.52008790	     -4.36432678	      0.31965518	    -16.14196404	     27.50696956	     -4.32652450	      4.53849876	      2.18474776	     16.07952580
      1.49000000	    -15.62838757	      4.91942398	    -33.59543746	     -1.41916367	      0.85527580	     -0.51461544	     12.47909988	     -2.56276068	      4.03957788	    -13.69214374	     21.22257277	      6.75070230	      9.18890925	     -4.22329401	      0.41410422	    -16.02965577	     27.74624417	     -4.40410677	      4.53270199	      2.15173830	     15.91718210
      1.50000000	    -15.67549559	      4.94322407	    -33.50860111	     -1.41472441	      0.85416987	     -0.51380076	     12.86200207	     -2.67557274	      4.02534789	    -14.89315213	     21.53064299	      6.97606635	      8.88552049	     -4.08801682	      0.53391245	    -15.93215611	     27.95100167	     -4.54088122	      4.53554238	      2.11708040	     15.74129271
      1.51000000	    -15.71669765	      4.90512300	    -33.42945196	     -1.41015163	      0.85309948	     -0.51288869	     13.28437200	     -2.73101079	      4.01560213	    -16.26937978	     21.80286848	      7.15869965	      8.52560676	     -4.01377942	      0.60014192	    -15.82086291	     28.18536388	     -4.63471804	      4.48529321	      2.14328448	     15.51945515
      1.52000000	    -15.79181239	      4.85279922	    -33.35810780	     -1.40549414	      0.85200578	     -0.51188180	     13.83784298	     -2.74442061	      4.02703731	    -17.86294965	     21.97316172	      7.42990013	      8.16217703	     -3.97854206	      0.65048371	    -15.67368703	     28.40754492	     -4.75500483	      4.45098843	      2.20388158	     15.26946087
      1.53000000	    -15.84475908	      4.75614285	    -33.29586237	     -1.40073900	      0.85097553	     -0.51080645	     14.45809659	     -2.71929322	      4.09126346	    -19.68199062	     22.05492189	      7.65337047	      7.74701491	     -3.97345985	      0.68861577	    -15.52959005	     28.62574703	     -4.83230889	      4.34941929	      2.29388476	     14.98899671
      1.54000000	    -15.94747001	      4.63065330	    -33.23768892	     -1.39587625	      0.84992090	     -0.50964972	     15.22880879	     -2.62745624	      4.18379740	    -21.74233713	     21.97342667	      8.04775968	      7.33250664	     -4.02699476	      0.70634659	    -15.34530803	     28.86105916	     -4.96125492	      4.26950161	      2.44811882	     14.66405179
      1.55000000	    -16.04607772	      4.48817065	    -33.19908784	     -1.39092524	      0.84889857	     -0.50838857	     16.12936031	     -2.49669885	      4.34719714	    -24.07449085	     21.73028629	      8.34475962	      6.87051145	     -4.09767458	      0.70648154	    -15.11575914	     29.05655521	     -5.03387149	      4.16006891	      2.61472925	     14.32185116
      1.56000000	    -16.17057215	      4.31370340	    -33.15963420	     -1.38589531	      0.84786141	     -0.50704294	     17.17756702	     -2.29786820	      4.55351654	    -26.67495394	     21.29240881	      8.73526965	      6.40044656	     -4.21594278	      0.69962809	    -14.87666611	     29.26718773	     -5.11569560	      4.03892144	      2.82671754	     13.93286733
      1.57000000	    -16.28328544	      4.12154683	    -33.13161210	     -1.38082237	      0.84683373	     -0.50560865	     18.36616225	     -2.05428260	      4.82102413	    -29.55895486	     20.63370062	      9.10145675	      5.89613760	     -4.34757272	      0.68240305	    -14.62946658	     29.49001950	     -5.16669277	      3.87159054	      3.04269965	     13.52716078
      1.58000000	    -16.44338291	      3.92146666	    -33.08226966	     -1.37565904	      0.84571314	     -0.50406527	     19.73547923	     -1.75390977	      5.07001192	    -32.68993502	     19.72773067	      9.61266400	      5.39659533	     -4.52042429	      0.66473217	    -14.33035287	     29.70247822	     -5.20654091	      3.73599176	      3.28829705	     13.04107038
      1.59000000	    -16.56537604	      3.71033424	    -33.03741013	     -1.37047508	      0.84458923	     -0.50242647	     21.21894674	     -1.42623251	      5.34780700	    -36.05778473	     18.56404959	     10.06343545	      4.84403276	     -4.68694408	      0.65630929	    -14.02478914	     29.88910050	     -5.19599305	      3.52461693	      3.51157713	     12.55334779
      1.60000000	    -16.68089710	      3.50047248	    -32.95454075	     -1.36518766	      0.84335390	     -0.50068683	     22.82422935	     -1.09296121	      5.56127341	    -39.60825062	     17.22639629	     10.62661261	      4.26137484	     -4.85499065	      0.65622772	    -13.68139796	     30.14414586	     -5.13508286	      3.29284296	      3.71890066	     11.96786414
      1.61000000	    -16.74617355	      3.29642066	    -32.87050576	     -1.35984755	      0.84206200	     -0.49878504	     24.51261464	     -0.76794661	      5.74318948	    -43.30131769	     15.74301707	     11.09120751	      3.60848469	     -5.00025927	      0.65085260	    -13.30824432	     30.33928094	     -5.02280243	      2.99241152	      3.87390781	     11.37798668
